<svg xmlns="http://www.w3.org/2000/svg" width="512" height="512" viewBox="0 0 512 512">
  <rect width="512" height="512" fill="#ffffff"/>
  <g fill="none" stroke="#111111" stroke-width="18" stroke-linecap="round" stroke-linejoin="round">
    <path d="M172 348 C162 252 176 192 206 168 C220 156 242 162 248 182 L262 244"/>
    <path d="M202 168 L202 132"/>
    <path d="M236 176 L236 120"/>
    <path d="M270 194 L270 128"/>
    <path d="M300 224 L300 148"/>
    <path d="M262 244 L284 210 C294 194 316 194 324 212 L350 272 C370 318 332 380 274 398 L214 416"/>
    <path d="M214 416 L170 402 C150 396 136 376 140 356 L152 300"/>
  </g>
  <text x="256" y="478" text-anchor="middle" font-size="40" font-family="system-ui, -apple-system, Segoe UI, Roboto, Arial" fill="#111111">GLOVES</text>
</svg>
